<?xml version="1.0" standalone="no"?>
<!DOCTYPE svg PUBLIC "-//W3C//DTD SVG 20010904//EN"
 "http://www.w3.org/TR/2001/REC-SVG-20010904/DTD/svg10.dtd">
<svg version="1.0" xmlns="http://www.w3.org/2000/svg"
 width="32.000000pt" height="32.000000pt" viewBox="0 0 32.000000 32.000000"
 preserveAspectRatio="xMidYMid meet">

<g transform="translate(0.000000,32.000000) scale(0.100000,-0.100000)"
fill="#000000" stroke="none">
<path d="M80 271 c0 -13 -8 -21 -22 -23 -15 -2 -24 -11 -26 -25 -3 -23 -3 -23
128 -23 131 0 131 0 128 23 -2 14 -11 23 -25 25 -15 2 -23 10 -23 23 0 10 -7
19 -15 19 -8 0 -15 -9 -15 -20 0 -17 -7 -20 -50 -20 -43 0 -50 3 -50 20 0 11
-7 20 -15 20 -8 0 -15 -9 -15 -19z"/>
<path d="M32 103 l3 -68 125 0 125 0 3 68 3 67 -131 0 -131 0 3 -67z"/>
</g>
</svg>
