<?xml version="1.0" standalone="no"?>
<!DOCTYPE svg PUBLIC "-//W3C//DTD SVG 20010904//EN"
 "http://www.w3.org/TR/2001/REC-SVG-20010904/DTD/svg10.dtd">
<svg version="1.0" xmlns="http://www.w3.org/2000/svg"
 width="32.000000pt" height="32.000000pt" viewBox="0 0 32.000000 32.000000"
 preserveAspectRatio="xMidYMid meet">

<g transform="translate(0.000000,32.000000) scale(0.100000,-0.100000)"
fill="#000000" stroke="none">
<path d="M47 270 c-31 -37 -32 -39 -13 -85 33 -77 157 -175 204 -161 10 4 29
17 41 30 l22 24 -27 21 c-30 23 -54 27 -71 10 -15 -15 -65 15 -88 53 -13 22
-14 33 -6 41 17 17 13 44 -12 73 l-23 27 -27 -33z"/>
<path d="M170 293 c0 -5 18 -16 41 -25 31 -13 44 -26 57 -57 9 -23 21 -41 26
-41 11 0 -2 49 -20 78 -20 31 -104 67 -104 45z"/>
<path d="M170 242 c0 -5 11 -14 24 -20 13 -6 27 -20 31 -31 7 -24 25 -28 25
-6 0 20 -45 65 -65 65 -8 0 -15 -4 -15 -8z"/>
</g>
</svg>
