<?xml version="1.0" standalone="no"?>
<!DOCTYPE svg PUBLIC "-//W3C//DTD SVG 20010904//EN"
 "http://www.w3.org/TR/2001/REC-SVG-20010904/DTD/svg10.dtd">
<svg version="1.0" xmlns="http://www.w3.org/2000/svg"
 width="32.000000pt" height="32.000000pt" viewBox="0 0 32.000000 32.000000"
 preserveAspectRatio="xMidYMid meet">

<g transform="translate(0.000000,32.000000) scale(0.100000,-0.100000)"
fill="#000000" stroke="none">
<path d="M7 273 c-19 -18 0 -42 66 -85 40 -27 81 -48 91 -48 18 0 123 68 145
94 7 9 11 23 7 31 -4 12 -31 15 -154 15 -82 0 -152 -3 -155 -7z"/>
<path d="M2 128 l3 -83 153 -3 c122 -2 153 0 158 11 3 8 4 46 2 86 l-3 71 -67
-45 c-37 -25 -77 -45 -88 -45 -12 0 -47 17 -78 38 -31 21 -63 42 -70 46 -10 6
-12 -10 -10 -76z"/>
</g>
</svg>
