<?xml version="1.0" standalone="no"?>
<!DOCTYPE svg PUBLIC "-//W3C//DTD SVG 20010904//EN"
 "http://www.w3.org/TR/2001/REC-SVG-20010904/DTD/svg10.dtd">
<svg version="1.0" xmlns="http://www.w3.org/2000/svg"
 width="32.000000pt" height="32.000000pt" viewBox="0 0 32.000000 32.000000"
 preserveAspectRatio="xMidYMid meet">

<g transform="translate(0.000000,32.000000) scale(0.100000,-0.100000)"
fill="#000000" stroke="none">
<path d="M113 305 c-92 -40 -84 -153 22 -280 l25 -30 25 30 c107 128 114 241
20 281 -42 17 -51 17 -92 -1z m94 -71 c15 -24 15 -29 2 -53 -11 -20 -22 -26
-49 -26 -27 0 -38 6 -49 26 -13 24 -13 29 2 53 24 36 70 36 94 0z"/>
</g>
</svg>
