<?xml version="1.0" standalone="no"?>
<!DOCTYPE svg PUBLIC "-//W3C//DTD SVG 20010904//EN"
 "http://www.w3.org/TR/2001/REC-SVG-20010904/DTD/svg10.dtd">
<svg version="1.0" xmlns="http://www.w3.org/2000/svg"
 width="32.000000pt" height="32.000000pt" viewBox="0 0 32.000000 32.000000"
 preserveAspectRatio="xMidYMid meet">

<g transform="translate(0.000000,32.000000) scale(0.100000,-0.100000)"
fill="#000000" stroke="none">
<path d="M105 295 c-30 -30 -32 -64 -4 -99 26 -33 79 -36 109 -6 30 30 27 83
-6 109 -35 28 -69 26 -99 -4z"/>
<path d="M46 139 c-21 -30 -21 -103 0 -123 12 -12 38 -16 114 -16 121 0 135 9
128 81 -7 65 -22 82 -67 74 -45 -8 -77 -8 -122 0 -31 6 -39 3 -53 -16z"/>
</g>
</svg>
